<svg width="91" height="122" viewBox="0 0 91 122" fill="none" xmlns="http://www.w3.org/2000/svg">
<path d="M90.291 76.8549C90.291 51.9217 70.0787 31.7095 45.1456 31.7095C42.5963 31.7095 40.1109 31.9608 37.6821 32.3797V67.634C39.8811 65.8186 42.7005 64.728 45.7746 64.728C52.7995 64.728 58.4942 70.4227 58.4942 77.4474C58.4942 79.7101 57.8969 81.8304 56.8613 83.6712L90.2404 77.8568C90.2478 77.5204 90.291 77.1931 90.291 76.8549Z" fill="url(#paint0_linear_3149_466)"/>
<path d="M56.8609 83.671C54.681 87.5454 50.5365 90.1669 45.7742 90.1669C38.7493 90.1669 33.0546 84.4722 33.0546 77.4473C33.0546 77.4103 33.06 77.3746 33.0602 77.3377H33.0546V33.3958L33.0526 33.3964V0H0V78.7357H0.0950129C1.0886 102.79 20.8473 122 45.1454 122C69.7402 122 89.702 102.322 90.2402 77.8566L56.8609 83.671Z" fill="url(#paint1_linear_3149_466)"/>
<defs>
<linearGradient id="paint0_linear_3149_466" x1="46.3512" y1="31.7473" x2="72.7014" y2="51.1131" gradientUnits="userSpaceOnUse">
<stop stop-color="#0A4283"/>
<stop offset="1" stop-color="#317FDA"/>
</linearGradient>
<linearGradient id="paint1_linear_3149_466" x1="-10.4766" y1="52.0655" x2="30.7238" y2="56.7391" gradientUnits="userSpaceOnUse">
<stop offset="0.218203" stop-color="#0E417D"/>
<stop offset="1" stop-color="#317FDA"/>
</linearGradient>
</defs>
</svg>
